<?xml version="1.0" encoding="UTF-8" standalone="no"?>
<!DOCTYPE svg PUBLIC "-//W3C//DTD SVG 1.1//EN" "http://www.w3.org/Graphics/SVG/1.1/DTD/svg11.dtd">
<svg width="100%" height="100%" viewBox="0 0 3526 591" version="1.1" xmlns="http://www.w3.org/2000/svg" xmlns:xlink="http://www.w3.org/1999/xlink" xml:space="preserve" xmlns:serif="http://www.serif.com/" style="fill-rule:evenodd;clip-rule:evenodd;stroke-linejoin:round;stroke-miterlimit:2;">
    <g transform="matrix(1,0,0,1,0,-829.36)">
        <g id="Logo-white" serif:id="Logo white" transform="matrix(1,0,0,1,0,829.36)">
            <rect x="0" y="0" width="3525.79" height="590.717" style="fill:none;"/>
            <g id="Laag-1" serif:id="Laag 1" transform="matrix(4.16667,0,0,4.16667,-1189.34,-2602.35)">
                <g transform="matrix(1,0,0,1,410.205,643.595)">
                    <path d="M0,57.094L-19.031,57.094L-19.031,-0L0,-0L0,57.094ZM-46.505,-19.031L-38.062,-9.424L-38.062,76.125L19.03,76.125L19.03,-19.031L-46.505,-19.031Z" style="fill:white;fill-rule:nonzero;"/>
                </g>
                <g transform="matrix(1,0,0,1,882.921,643.595)">
                    <path d="M0,57.094L-19.03,57.094L-19.03,-0L0,-0L0,57.094ZM-46.505,-19.031L-38.061,-9.424L-38.061,76.125L19.03,76.125L19.03,-19.031L-46.505,-19.031Z" style="fill:white;fill-rule:nonzero;"/>
                </g>
                <g transform="matrix(1,0,0,1,725.447,697.655)">
                    <path d="M0,-54.059L0,-32.091L-19.03,-32.091L-19.03,-54.059L0,-54.059ZM-46.505,-73.09L-38.063,-63.483L-38.063,38.062L-19.03,22.066L-19.03,-13.06L0,-13.06L0,22.066L19.033,22.066L19.033,-73.09L-46.505,-73.09Z" style="fill:white;fill-rule:nonzero;"/>
                </g>
                <g transform="matrix(1,0,0,1,987.701,719.317)">
                    <path d="M0,-94.753L16.819,-75.722L27.475,-75.722L27.475,0L46.506,0L46.506,-75.722L65.537,-75.722L65.537,-94.753L0,-94.753Z" style="fill:white;fill-rule:nonzero;"/>
                </g>
                <g transform="matrix(1,0,0,1,647.527,681.659)">
                    <path d="M0,-38.063L0,19.03L-19.03,19.03L-19.03,-38.063L0,-38.063ZM19.031,-57.094L-46.505,-57.094L-38.062,-47.487L-38.062,38.062L0,38.062L19.031,19.03L19.031,-57.094Z" style="fill:white;fill-rule:nonzero;"/>
                </g>
                <g transform="matrix(1,0,0,1,805.894,681.659)">
                    <path d="M0,-19.032L-19.03,-19.032L-19.03,-38.063L0,-38.063L0,-19.032ZM0,19.03L-19.03,19.03L-19.03,0L0,0L0,19.03ZM19.051,-57.094L-46.506,-57.094L-38.063,-47.487L-38.063,28.34L-45.238,38.062L0,38.062L19.031,19.03L19.031,-0.001L7.75,-9.763L19.031,-19.032L19.051,-57.094Z" style="fill:white;fill-rule:nonzero;"/>
                </g>
                <g transform="matrix(1,0,0,1,507.766,634.286)">
                    <path d="M0,75.712L0,-9.722L-19.03,-9.722L-19.03,66.403L-38.062,66.403L-37.873,-9.722L-65.536,-9.722L-57.094,-0.114L-57.094,66.403L-38.062,85.434L7.602,85.434L0,75.712Z" style="fill:white;fill-rule:nonzero;"/>
                </g>
                <g transform="matrix(1,0,0,1,981.377,634.286)">
                    <path d="M0,75.712L0,-9.722L-19.032,-9.722L-19.032,66.403L-38.063,66.403L-37.873,-9.722L-65.538,-9.722L-57.096,-0.114L-57.096,66.403L-38.063,85.434L7.601,85.434L0,75.712Z" style="fill:white;fill-rule:nonzero;"/>
                </g>
                <g transform="matrix(1,0,0,1,569.612,719.72)">
                    <path d="M0,-95.156L0,-76.005L-18.841,-95.156L-46.504,-95.156L-38.061,-85.548L-38.061,0L-19.031,0L-19.031,-68.086L0,-49.686L0,0L19.031,0L19.031,-95.156L0,-95.156Z" style="fill:white;fill-rule:nonzero;"/>
                </g>
                <g transform="matrix(1,0,0,1,0,-30.96)">
                    <path d="M313.104,674.556L332.135,674.556L332.135,698.945L313.104,698.945L313.104,674.556ZM351.167,723.735L338.763,712.453L350.832,700.568L351.167,655.524L285.441,655.524L294.074,665.347L294.074,792.756L313.104,778.467L313.104,713.273L332.136,731.671L332.136,770.428L351.167,758.522L351.167,723.735Z" style="fill:white;fill-rule:nonzero;"/>
                </g>
                <g transform="matrix(1,0,0,1,1121.04,702.125)">
                    <path d="M0,-13.35L-37.658,-38.225L-37.658,-58.53L-18.627,-58.53L-18.627,-39.499L0.404,-39.499L0.469,-67.321L10.588,-77.144L-56.688,-77.561L-56.688,-26.114L-18.627,-0.079L-18.627,39.428L-37.299,39.428L0.404,64.211L0,-13.35Z" style="fill:white;fill-rule:nonzero;"/>
                </g>
                <g transform="matrix(-1,0,0,1,1064.35,741.318)">
                    <path d="M-19.03,-31.618L0,-31.618L0,-12.511L-19.03,0L-19.03,-31.618Z" style="fill:white;fill-rule:nonzero;"/>
                </g>
                <g transform="matrix(1,0,0,1,1083.38,741.316)">
                    <path d="M0,0.237L0.359,0.237L0,0L0,0.237Z" style="fill:white;fill-rule:nonzero;"/>
                </g>
            </g>
        </g>
    </g>
</svg>
